<svg width="512" height="512" viewBox="0 0 512 512" fill="none" xmlns="http://www.w3.org/2000/svg">
    <path fill-rule="evenodd" clip-rule="evenodd"
        d="M64.4007 0L64 171.389C64 171.389 245.969 293.383 247.856 294.66C249.744 295.938 269.918 313.722 256.026 332.751C242.135 351.78 219.966 342.056 216.954 340.092C213.943 338.128 64 238.592 64 238.592V282.879C64 282.879 68.1008 349.541 123.027 409.393C177.953 469.244 256.026 511.002 256.026 511.002C256.026 511.002 343.229 461.193 389.674 409.393C436.118 357.592 447.251 292.841 447.251 292.841V280.887C447.251 280.887 261.771 154.954 254.222 149.598C246.674 144.242 237.709 126.903 247.856 111.624C258.004 96.3444 279.369 100.683 286.611 104.233C293.853 107.783 447.251 210.27 447.251 210.27V0.962622L64.4007 0Z"
        fill="black" />
</svg>